<svg xmlns="http://www.w3.org/2000/svg" viewBox="108 128 146 134">
    <g fill-rule="evenodd">
        <path d="M248.855 134.863c.014 1.128.167 5.918.338 10.645.172 4.726.255 8.66.185 8.74-.07.081-1.303-.93-2.739-2.246-3.217-2.948-2.801-3.016-5.066.83-26.388 44.803-78.375 69.762-122.599 58.861-1.703-.42-3.159-.825-3.235-.902-.076-.076 2.636-.257 6.026-.402 50.36-2.154 89.816-23.737 112.577-61.581 2.402-3.994 2.393-3.693.131-4.251-4.275-1.055-4.873-1.266-4.537-1.602.607-.607 17.894-10.127 18.404-10.135.326-.005.497.673.515 2.043m-23.139 14.676c-.071.176-1.185 2.107-2.474 4.29l-2.344 3.969-28.414.007-28.414.008-.102 19.791-.101 19.791-3.906 1.094c-2.148.603-4.126 1.101-4.395 1.108-.385.01-.488-5.28-.488-25.183v-25.195h35.384c19.462 0 35.326.144 35.254.32m22.024 10.896 1.869 1.84v26.233c0 31.284-.095 32.214-4.144 40.203-3.867 7.631-8.918 12.154-22.662 20.296-4.27 2.53-10.689 6.345-14.264 8.478l-6.501 3.878-5.218-3.265c-2.87-1.796-8.91-5.482-13.422-8.19-15.664-9.403-20.296-13.586-24.241-21.895-1.508-3.174-3.059-8.501-2.599-8.923.297-.272 7.929-1.623 8.085-1.431.052.063.352.905.668 1.872l.574 1.758 29.069.121c15.988.066 32.443.004 36.567-.14l7.497-.26.651-1.814c.376-1.047.736-3.587.854-6.012l.202-4.2h-24.073c-13.241 0-24.074-.131-24.073-.293 0-.161.835-.808 1.855-1.437s3.823-2.431 6.228-4.004l4.373-2.859h35.59v-12.772l-4.162-.255c-2.29-.14-6.245-.255-8.789-.255-5.542 0-5.46.425-.868-4.534l3.759-4.059h10.06v-12.998l2.226-3.462c2.598-4.041 2.474-4 4.889-1.621m-74.016 71.962c1.553 1.473 5.079 4.19 7.834 6.039l5.009 3.361H217.83l5.831-3.871c5.667-3.762 9.933-7.145 9.933-7.878 0-.217-12.455-.354-31.348-.344l-31.348.016 2.826 2.677m27.057 17.509c0 .964 1.685 1.317 2.482.52l.817-.817h-1.649c-.908 0-1.65.134-1.65.297" fill="#f8fafc" />
        <path d="M155.469 174.362v25.142l2.636-.735c1.451-.405 3.296-.915 4.102-1.135l1.465-.398v-39.423h56.947l2.386-4.031c1.312-2.217 2.386-4.151 2.386-4.297 0-.147-15.733-.266-34.961-.266h-34.961v25.143m89.453-15.428c0 .188-.879 1.687-1.953 3.333l-1.953 2.992v13.647l-5.371.021-5.372.021-3.642 4.081-3.642 4.08h18.027v13.282h-35.659l-4.339 2.848a855.224 855.224 0 0 1-6.291 4.097l-1.954 1.249 24.178.004 24.177.005-.22 4.004c-.122 2.202-.549 5.058-.951 6.347l-.731 2.344-36.802.1-36.801.099-.471-1.759c-.538-2.013-.409-1.982-4.955-1.182-4.023.708-3.791.43-2.998 3.586 2.722 10.835 8.634 17.015 26.551 27.755 4.533 2.717 10.327 6.24 12.875 7.828 2.548 1.589 4.869 2.979 5.158 3.09.288.111 3.125-1.371 6.304-3.292 3.179-1.922 9.823-5.897 14.765-8.835 25.203-14.984 26.825-18.79 26.735-62.741l-.047-23.243-2.003-2.05c-1.934-1.982-2.615-2.427-2.615-1.711m-11.225 71.337c-.644 1.151-5.077 4.629-10.257 8.047l-5.27 3.479h-31.91l-4.165-2.793c-4.808-3.223-8.281-5.918-10.199-7.915l-1.346-1.401h31.737c28.042 0 31.698.067 31.41.583m-29.4 19.507c0 .093-.502.526-1.116.964l-1.116.794-.905-.963-.906-.964h2.022c1.111 0 2.021.076 2.021.169" fill="#1f2937" />
        <path d="M248.927 140.82c.004.86.084 1.165.177.679.094-.486.09-1.189-.007-1.562-.098-.374-.175.024-.17.883m-93.678 18.946c0 5.908.055 8.325.121 5.371.067-2.954.067-7.788 0-10.742-.066-2.955-.121-.538-.121 5.371m94.028-6.886c-.052 1.001-.132 1.067-.742.607-.648-.488-.649-.477-.009.222.837.915 1.193.609.976-.841l-.166-1.11-.059 1.122m-85.605 24.737c-.108 11-.062 19.867.101 19.704.163-.163.251-9.164.195-20l-.101-19.704-.195 20m77.04-5.851-.087 6.727-5.176.121-5.176.122 5.188.085c6.185.102 5.608.879 5.457-7.352l-.118-6.43-.088 6.727m-85.462 17.101c0 6.016.054 8.422.12 5.348a302.12 302.12 0 0 0 0-10.938c-.066-2.941-.12-.425-.12 5.59m63.479-7.715-1.346 1.465 1.465-1.346c1.363-1.253 1.644-1.583 1.346-1.583-.065 0-.725.659-1.465 1.464m19.055 6.238 2.822.144.122 6.429.122 6.428-.015-6.543-.015-6.543-2.929-.03-2.93-.029 2.823.144m2.962 23.743c.002 1.289.075 1.769.162 1.067.087-.702.085-1.757-.004-2.344-.089-.587-.16-.012-.158 1.277m-117.792-.7c.486.093 1.189.089 1.562-.008.374-.098-.024-.175-.883-.17-.86.004-1.165.084-.679.178m16.401 3.905a5.574 5.574 0 0 0 1.758 0c.484-.093.088-.169-.879-.169-.966 0-1.362.076-.879.169m94.154 7.044c1.135.079 2.893.079 3.906-.002 1.014-.08.085-.145-2.063-.144-2.149.001-2.978.067-1.843.146m-62.415 8.818c0 .068.571.639 1.269 1.27l1.27 1.147-1.147-1.269c-1.07-1.184-1.392-1.449-1.392-1.148" fill="#6b7280" />
        <path d="M249.317 164.648c.005.86.085 1.165.178.679.093-.485.09-1.189-.008-1.562s-.174.024-.17.883m-94.094 9.571c0 2.256.064 3.178.143 2.051a35.528 35.528 0 0 0 0-4.102c-.079-1.128-.143-.205-.143 2.051m69.173 11.035-1.544 1.66 1.66-1.544c1.544-1.436 1.839-1.776 1.544-1.776-.064 0-.811.747-1.66 1.66m-31.818 23.437c0 .162 10.943.253 24.317.204 13.374-.05 20.449-.137 15.722-.195-22.219-.271-40.039-.274-40.039-.009m56.747 4.2c0 .966.076 1.362.169.879a5.515 5.515 0 0 0 0-1.758c-.093-.484-.169-.088-.169.879m-83.326 24.707c1.619 1.724 1.97 2.034 1.97 1.741 0-.063-.835-.898-1.856-1.855l-1.855-1.742 1.741 1.856" fill="#4b5563" />
        <path d="M238.996 137.819c-4.87 2.725-8.959 5.059-9.086 5.187-.128.128 1.264.628 3.093 1.111 3.871 1.022 3.788.817 1.707 4.216-23.57 38.508-62.734 60.213-112.024 62.084-7.556.286-7.595.413-.587 1.878 43.259 9.043 93.147-15.616 118.918-58.779a616.64 616.64 0 0 1 2.508-4.183c.034-.044 1.284.98 2.78 2.275l2.718 2.356.138-1.103c.325-2.602-.429-20.048-.865-20.022-.244.014-4.429 2.256-9.3 4.98" fill="#34d399" />
    </g>
</svg>
